<?xml version="1.0" encoding="utf-8"?>
<!-- Generator: Adobe Illustrator 19.1.1, SVG Export Plug-In . SVG Version: 6.00 Build 0)  -->
<svg version="1.1" id="Layer_1" xmlns="http://www.w3.org/2000/svg" xmlns:xlink="http://www.w3.org/1999/xlink" x="0px" y="0px"
	 viewBox="0 0 338.9 95.5" style="enable-background:new 0 0 338.9 95.5;" xml:space="preserve">
<style type="text/css">
	.st0{fill:#FFFFFF;}
	.st1{fill:#231F20;}
	.st2{fill:url(#SVGID_1_);}
	.st3{fill:url(#SVGID_2_);}
	.st4{fill:url(#SVGID_3_);}
	.st5{fill:none;}
	.st6{opacity:0.11;}
	.st7{fill:url(#SVGID_4_);}
	.st8{fill:url(#SVGID_5_);}
	.st9{fill:url(#SVGID_6_);}
	.st10{fill:url(#SVGID_7_);}
	.st11{fill:url(#SVGID_8_);}
	.st12{fill:url(#SVGID_9_);}
	.st13{fill:url(#SVGID_10_);}
	.st14{opacity:0.66;}
	.st15{fill:url(#SVGID_11_);}
	.st16{fill:url(#SVGID_12_);}
	.st17{fill:url(#SVGID_13_);}
	.st18{fill:url(#SVGID_14_);}
	.st19{clip-path:url(#SVGID_16_);fill:#FCED69;}
	.st20{clip-path:url(#SVGID_16_);fill:#FBED6B;}
	.st21{clip-path:url(#SVGID_16_);fill:#FBED6C;}
	.st22{clip-path:url(#SVGID_16_);fill:#FDEF6E;}
	.st23{clip-path:url(#SVGID_16_);fill:#FCEF70;}
	.st24{clip-path:url(#SVGID_16_);fill:#FCEF71;}
	.st25{clip-path:url(#SVGID_16_);fill:#FCEF73;}
	.st26{clip-path:url(#SVGID_16_);fill:#FCEF75;}
	.st27{clip-path:url(#SVGID_16_);fill:#FCEF77;}
	.st28{clip-path:url(#SVGID_16_);fill:#FCF07A;}
	.st29{clip-path:url(#SVGID_16_);fill:#FCF07C;}
	.st30{clip-path:url(#SVGID_16_);fill:#FCF17D;}
	.st31{clip-path:url(#SVGID_16_);fill:#FCF17F;}
	.st32{clip-path:url(#SVGID_16_);fill:#FCF180;}
	.st33{clip-path:url(#SVGID_16_);fill:#FCF181;}
	.st34{clip-path:url(#SVGID_16_);fill:#FCF284;}
	.st35{clip-path:url(#SVGID_16_);fill:#FCF285;}
	.st36{clip-path:url(#SVGID_16_);fill:#FCF287;}
	.st37{clip-path:url(#SVGID_16_);fill:#FCF188;}
	.st38{clip-path:url(#SVGID_16_);fill:#FCF189;}
	.st39{clip-path:url(#SVGID_16_);fill:#FCF18B;}
	.st40{clip-path:url(#SVGID_16_);fill:#FCF18C;}
	.st41{clip-path:url(#SVGID_16_);fill:#FCF38D;}
	.st42{clip-path:url(#SVGID_16_);fill:#FCF38E;}
	.st43{clip-path:url(#SVGID_16_);fill:#FDF38F;}
	.st44{clip-path:url(#SVGID_16_);fill:#FDF390;}
	.st45{clip-path:url(#SVGID_16_);fill:#FDF392;}
	.st46{clip-path:url(#SVGID_16_);fill:#FDF492;}
	.st47{clip-path:url(#SVGID_16_);fill:#FCF494;}
	.st48{clip-path:url(#SVGID_16_);fill:#FBF396;}
	.st49{clip-path:url(#SVGID_16_);fill:#FBF397;}
	.st50{clip-path:url(#SVGID_16_);fill:#FBF398;}
	.st51{clip-path:url(#SVGID_16_);fill:#FBF499;}
	.st52{clip-path:url(#SVGID_16_);fill:#FBF49A;}
	.st53{clip-path:url(#SVGID_16_);fill:#FCF49C;}
	.st54{clip-path:url(#SVGID_16_);fill:#FCF49D;}
	.st55{clip-path:url(#SVGID_16_);fill:#FBF49D;}
	.st56{clip-path:url(#SVGID_16_);fill:#FBF49E;}
	.st57{clip-path:url(#SVGID_16_);fill:#FBF49F;}
	.st58{clip-path:url(#SVGID_16_);fill:#FBF4A1;}
	.st59{clip-path:url(#SVGID_16_);fill:#FBF4A2;}
	.st60{clip-path:url(#SVGID_16_);fill:#FBF4A3;}
	.st61{clip-path:url(#SVGID_16_);fill:#FBF4A4;}
	.st62{clip-path:url(#SVGID_16_);fill:#FBF4A5;}
	.st63{clip-path:url(#SVGID_16_);fill:#FBF4A6;}
	.st64{clip-path:url(#SVGID_16_);fill:#FBF4A7;}
	.st65{clip-path:url(#SVGID_16_);fill:#FAF4A8;}
	.st66{clip-path:url(#SVGID_16_);fill:#FAF5A9;}
	.st67{clip-path:url(#SVGID_16_);fill:#FAF5AA;}
	.st68{clip-path:url(#SVGID_16_);fill:#FAF5AB;}
	.st69{clip-path:url(#SVGID_16_);fill:#FAF5AC;}
	.st70{clip-path:url(#SVGID_16_);fill:#FAF5AD;}
	.st71{fill:#BBBDBF;stroke:#231F20;stroke-width:4;stroke-miterlimit:10;}
	.st72{fill:url(#SVGID_17_);}
	.st73{fill:url(#SVGID_18_);}
	.st74{fill:#FFFFFF;stroke:#BBBDBF;stroke-linecap:round;stroke-miterlimit:10;}
	.st75{fill:none;stroke:#FFFFFF;stroke-linecap:round;stroke-linejoin:round;stroke-miterlimit:10;}
</style>
<path class="st0" d="M23.7,81c-2.9,0-6.1-0.2-9.3-0.6c-4.1-0.4-6.3-2.7-6.2-6.6c0-2.6,1.8-6.8,4.2-12.6c2.9-7,6.9-16.5,9.6-27.5
	l0.2-0.6l0.6-0.1c0.6-0.1,1.2-0.1,1.8-0.1c2.9,0,6.1,1,7.6,3.1c2.7-1.8,5.6-2.7,8.5-2.7c5.4,0,10,3.2,10.9,7.6
	c1.5,7.6-4,12.9-10.4,15.7c3.1,1.4,5.4,3.4,6.6,5.8c1.1,2.1,1.3,4.4,0.6,6.6C45.9,76.9,37.4,81,23.7,81z M22.4,70.6
	c1.2,0.3,2.7,0.4,4.1,0.4h0c3.5,0,7.6-0.9,8.8-3.6c0.6-1.3,0.5-2.5-0.1-3.5c-1.4-2.2-5.3-3.5-8.8-3.9C24.9,63.5,23.4,67.3,22.4,70.6
	z M31.4,46.4c-0.5,1.8-1.2,3.8-2,6.1c3.8-0.4,7.6-2.1,8.7-5.3c0.4-1.2,0.4-2.3-0.1-2.9c-0.4-0.6-1.1-0.7-1.7-0.7c-0.1,0-0.2,0-0.3,0
	C34.5,43.6,32.6,44.8,31.4,46.4z"/>
<path class="st1" d="M24.5,33.9c2.8,0,6.4,1,7.2,3.6c2.9-2.2,6-3.1,8.9-3.1c5,0,9.1,2.9,9.9,6.8c1.6,8.2-5.6,13.3-12.2,15.6
	c7.1,2.2,10.6,7.2,9.1,12.2C44.6,77.7,34.1,80,23.7,80c-3.2,0-6.3-0.2-9.2-0.5c-3.2-0.3-5.4-2-5.4-5.5c0.1-5.4,8.9-20.1,13.8-39.9
	C23.4,33.9,24,33.9,24.5,33.9 M28,53.5c4.2-0.1,9.6-1.8,11.1-6.1c1-2.9-0.3-4.9-2.7-4.9c-0.1,0-0.2,0-0.3,0
	c-1.8,0.1-4.1,1.4-5.5,3.4C29.7,48.7,28.7,51.5,28,53.5 M26.6,72c4.1,0,8.4-1.1,9.7-4.2c2.5-5.9-5.2-8.5-10.5-8.9
	c-1.8,4.2-3.6,8.6-4.5,12.3C22.7,71.7,24.6,72,26.6,72 M24.5,31.9c-0.7,0-1.4,0.1-2,0.2l-1.3,0.2L21,33.6
	c-2.7,10.9-6.6,20.4-9.5,27.4c-2.6,6.2-4.3,10.3-4.3,13C7,78.3,9.7,81,14.3,81.5c3.3,0.4,6.5,0.6,9.4,0.6c14.1,0,23-4.3,25.7-12.6
	c0.8-2.5,0.6-5-0.7-7.4c-1.1-2.1-2.9-3.9-5.3-5.3c5.9-3.2,10.6-8.5,9.1-16c-1-4.9-6-8.4-11.9-8.4c-2.8,0-5.7,0.8-8.3,2.4
	C30.4,32.7,27.2,31.9,24.5,31.9L24.5,31.9z M32.3,46.8c1.2-1.4,2.8-2.2,3.9-2.3c0.1,0,0.1,0,0.2,0c0.3,0,0.7,0.1,0.8,0.3
	c0.2,0.3,0.3,1,0,2c-0.8,2.3-3.4,3.8-6.2,4.4C31.5,49.6,31.9,48.2,32.3,46.8L32.3,46.8z M23.7,69.8c0.9-2.8,2.1-5.8,3.3-8.7
	c3.1,0.4,6.3,1.6,7.4,3.4c0.3,0.5,0.6,1.2,0,2.6c-0.8,1.8-3.8,2.9-7.9,2.9C25.6,70,24.6,69.9,23.7,69.8L23.7,69.8z"/>
<g>
	<path class="st0" d="M55.4,80.4c-2.2,0-4.1-0.7-5.3-1.9c-1.1-1.2-1.7-2.7-1.7-4.7c0-3.4,2.1-8.2,4.3-13.4
		c2.2-5.2,4.5-10.5,4.4-13.9l0-1.1l1.1,0c3.9,0.1,8.2,1.2,10,3.3c2-2.1,4.4-3.2,7-3.2c0.1,0,0.3,0,0.5,0c4.4,0,7.3,2.6,7.4,6.6
		c0.1,2-0.8,4.1-2.6,6c-2.4,2.5-5.9,4.1-7.1,4.1c0,0,0,0,0,0c-0.5,0-0.8-0.2-1-0.4l-0.3-0.3l0-0.5c0-0.7-0.1-2.6-1-3.6
		c-0.3-0.3-0.7-0.5-1.2-0.5c-0.8,0-1.8,0.9-2.9,2.5c-3.6,5.4-5.9,15.9-5,18.3l0.4,0.9L61.5,79C59.3,79.9,57.2,80.4,55.4,80.4z"/>
	<path class="st1" d="M58.1,46.4c5.2,0.2,9.4,1.9,9.9,4c2-2.5,4.3-3.9,7.2-3.9c0.2,0,0.3,0,0.5,0c3.9,0,6.3,2.2,6.4,5.6
		c0.2,5.3-7.3,9.1-8.8,9.1c-0.2,0-0.3,0-0.3-0.2c0,0,0.3-5.1-3.1-5.1c-5.1,0.1-10.3,18.3-8.8,22.2c-2.1,0.8-4.1,1.3-5.8,1.3
		c-3.5,0-6-1.8-6-5.6C49.4,67.2,58.2,53.4,58.1,46.4 M56.1,44.4l0,2.1c0.1,3.2-2.2,8.4-4.4,13.5c-2.2,5.2-4.4,10.2-4.4,13.8
		c0,2.2,0.7,4.1,2,5.4c1.4,1.4,3.5,2.2,6,2.2c2,0,4.2-0.5,6.5-1.4l1.8-0.7L63,77.4c-0.7-1.9,1.4-12.1,4.9-17.3
		c1.1-1.7,1.9-2.1,2.1-2.1c0.2,0,0.3,0.1,0.4,0.2c0.5,0.5,0.7,2,0.7,2.8c0,0.6,0.2,1.1,0.6,1.6c0.2,0.3,0.8,0.7,1.7,0.7
		c1.7,0,5.4-1.9,7.9-4.5c2-2.1,3-4.4,2.9-6.7c-0.2-4.6-3.5-7.5-8.4-7.5c-0.2,0-0.4,0-0.5,0c-2.6,0-4.9,1-7,2.8
		c-2.3-1.8-6.2-2.7-10-2.9L56.1,44.4L56.1,44.4z"/>
</g>
<g>
	<path class="st0" d="M106.1,80.4c-2.2,0-4-0.7-5.3-1.9c-1.1-1.1-1.6-2.6-1.7-4.4c-3.6,4-7,6-10.3,6.1c-0.2,0-0.3,0-0.5,0
		c-3.3,0-5.9-1.2-7.7-3.6c-2.4-3.1-3-8-1.5-13.3c2.4-8.8,10.9-17.9,21.2-17.9c2.3,0,5.3,0.3,7.4,2.7c0.1-0.7,0.2-1.3,0.3-1.8l0.1-1
		l1,0c4.5,0.2,10,1.5,10.7,4.6c0.7,3.1-1.2,7.8-3.3,12.7c-2.3,5.4-4.8,11.5-3.4,15l0.4,0.9l-0.9,0.4
		C110.1,79.9,107.9,80.4,106.1,80.4z M101.4,53.9c-4.3,0.1-8.1,5.3-9.1,9.1c-0.7,2.5-0.6,4.9,0.2,6c0.3,0.4,0.6,0.5,1.1,0.5
		c2.2,0,6.8-5.5,10.5-12.5c0.3-0.6,0.6-1.6,0.2-2.2C104,54.3,102.9,53.9,101.4,53.9z"/>
	<path class="st1" d="M108.9,46.4c5.1,0.2,9.3,1.7,9.8,3.8c1.4,6.2-9.6,20.8-6.7,27.9c-2.1,0.8-4.1,1.3-5.8,1.3c-3.5,0-6-1.8-6-5.6
		c0-0.9,0.2-1.8,0.4-3c-3.6,4.7-7.6,8.3-11.8,8.4c-0.2,0-0.3,0-0.5,0c-7.4,0-10.6-6.9-8.3-15.6c2.4-8.9,10.8-17.1,20.2-17.1
		c3.8,0,6.4,1.1,7.7,4.2C108.5,49.1,108.8,47.6,108.9,46.4 M93.6,70.5c3,0,7.9-6.4,11.4-13c1.4-2.9-0.1-4.6-3.6-4.6
		c-4.8,0.1-8.9,5.5-10.1,9.8C90.3,66.6,90.8,70.5,93.6,70.5 M107,44.4l-0.1,1.8c-1.7-1.1-3.9-1.7-6.6-1.7
		c-10.7,0-19.7,9.5-22.1,18.6c-1.5,5.6-0.9,10.8,1.7,14.2c2,2.6,4.9,4,8.5,4c0.2,0,0.4,0,0.6,0c3.1-0.1,6.3-1.7,9.6-4.9
		c0.3,1.1,0.9,2.1,1.7,2.9c1.4,1.4,3.5,2.2,6,2.2c2,0,4.3-0.5,6.6-1.4l1.9-0.7l-0.7-1.9c-1.2-3.1,1.2-9,3.4-14.2
		c2.2-5.3,4.2-9.9,3.4-13.4c-0.8-3.6-6.5-5.1-11.6-5.3L107,44.4L107,44.4z M93.6,68.5c-0.2,0-0.3,0-0.3-0.2c-0.5-0.7-0.7-2.7,0-5.1
		c1.1-3.9,4.7-8.3,8.2-8.4c1.4,0,2,0.3,2.1,0.5c0,0.1,0.1,0.4-0.3,1.2C99.2,64.3,95,68.5,93.6,68.5L93.6,68.5z"/>
</g>
<g>
	<path class="st0" d="M123.7,80.4c-2.2,0-4.1-0.7-5.3-1.9c-1.1-1.2-1.7-2.7-1.7-4.7c0-3.4,2.1-8.2,4.3-13.4
		c2.2-5.2,4.5-10.5,4.4-13.9l0-1.1l1.1,0c4.5,0.2,10,1.5,10.8,4.5c0.7,3.1-1.3,7.8-3.4,12.7c-2.3,5.4-4.9,11.5-3.5,15l0.4,0.9
		l-0.9,0.4C127.7,79.9,125.5,80.4,123.7,80.4z M134.2,45.1c-1.3,0-2.5-0.3-3.6-1c-1.6-0.9-2.6-2.3-2.9-3.9c-0.3-1.8,0.3-3.8,1.7-5.7
		c1.7-2.2,4.2-3.5,6.6-3.5c1.3,0,2.5,0.3,3.7,1c1.6,0.9,2.6,2.2,2.9,3.8c0.4,1.8-0.2,3.8-1.7,5.7C139.1,43.8,136.6,45.1,134.2,45.1z
		"/>
	<path class="st1" d="M136,32.1c1.1,0,2.2,0.3,3.2,0.9c3,1.7,3.3,4.9,0.9,8c-1.6,2.1-3.7,3.2-5.9,3.2c-1.1,0-2.1-0.3-3.1-0.8
		c-3-1.8-3.3-5-0.9-8.1C131.7,33.2,133.8,32.1,136,32.1 M126.4,46.4c5.2,0.2,9.3,1.7,9.8,3.8c1.4,6.2-9.6,20.8-6.8,27.9
		c-2.1,0.8-4.1,1.3-5.8,1.3c-3.5,0-6-1.8-6-5.6C117.7,67.2,126.5,53.4,126.4,46.4 M136,30.1L136,30.1c-2.8,0-5.5,1.4-7.4,3.9
		c-1.6,2.1-2.3,4.4-1.9,6.5c0.3,1.7,1.3,3.2,2.9,4.2c-1-0.2-2.1-0.2-3.1-0.3l-2.1-0.1l0,2.1c0.1,3.2-2.2,8.4-4.4,13.5
		c-2.2,5.2-4.4,10.2-4.4,13.8c0,2.2,0.7,4.1,2,5.4c1.4,1.4,3.5,2.2,6,2.2c2,0,4.2-0.5,6.5-1.4l1.9-0.7l-0.7-1.9
		c-1.2-3.1,1.3-9.1,3.5-14.3c2.2-5.3,4.2-9.9,3.4-13.3c-0.4-1.6-1.7-2.8-3.6-3.7c2.6-0.2,5.1-1.6,7-3.9c1.6-2.1,2.3-4.4,1.9-6.5
		c-0.4-1.9-1.5-3.4-3.4-4.5C138.8,30.5,137.4,30.1,136,30.1L136,30.1z"/>
</g>
<g>
	<path class="st0" d="M160.5,80.4c-2.2,0-4-0.7-5.2-1.9c-1.2-1.2-1.7-2.8-1.7-4.8c0-3.4,1.5-6.7,3.2-10.4c1-2.1,1.9-4.3,2.8-6.8
		c-2.3,1.1-7.8,5.7-10.6,11.7c-1.7,3.7-2.1,7.3-1.2,9.5l0.4,0.9l-0.9,0.4c-2.2,0.9-4.3,1.3-6.2,1.3c-2.2,0-4.1-0.7-5.3-1.9
		c-1.1-1.2-1.7-2.7-1.7-4.7c0-3.4,2.1-8.2,4.3-13.4c2.2-5.2,4.5-10.5,4.4-13.9l0-1.1l1.1,0c4.5,0.2,10,1.5,10.8,4.5
		c0.2,0.7,0.2,1.5,0.1,2.5c2.8-2.2,5.9-4,9.5-5.7c1.8-0.9,3.7-1.3,5.5-1.3c2.6,0,4.6,1.1,5.2,3c1,3.2-1.3,8.4-3.7,13.9
		c-2.5,5.6-5.3,12-3.9,15.4l0.4,0.9l-0.9,0.4C164.5,79.9,162.3,80.4,160.5,80.4z"/>
	<path class="st1" d="M143.7,46.4c5.2,0.2,9.3,1.7,9.8,3.8c0.3,1.3,0,3-0.6,4.9c4-3.5,8.1-5.8,11.6-7.4c1.8-0.8,3.5-1.2,5-1.2
		c2.1,0,3.7,0.8,4.2,2.3c2,6-10.4,22.3-7.6,29.3c-2.1,0.9-4.1,1.3-5.8,1.3c-3.5,0-6-1.8-6-5.6c0.1-5.2,3.8-10.3,6.2-17.6
		c0.2-0.6,0-0.9-0.4-0.9c-1.9,0-9,5.5-12.3,12.5c-1.7,3.8-2.3,7.7-1.3,10.3c-2.1,0.8-4.1,1.3-5.8,1.3c-3.5,0-6-1.8-6-5.6
		C135,67.2,143.9,53.4,143.7,46.4 M141.7,44.4l0,2.1c0.1,3.2-2.2,8.4-4.4,13.5c-2.2,5.2-4.4,10.2-4.4,13.8c0,2.2,0.7,4.1,2,5.4
		c1.4,1.4,3.5,2.2,6,2.2c2,0,4.2-0.5,6.5-1.4l1.9-0.7l-0.8-1.9c-0.8-2-0.3-5.3,1.2-8.8c1.9-4,5.1-7.5,7.6-9.5
		c-0.5,1.3-1.1,2.6-1.7,3.8c-1.7,3.9-3.2,7.2-3.3,10.8c0,2.2,0.7,4.1,2,5.5c1.4,1.4,3.5,2.2,6,2.2c2,0,4.3-0.5,6.6-1.4l1.8-0.8
		l-0.7-1.8c-1.2-3,1.5-9.1,3.9-14.6c2.6-5.9,4.9-11.1,3.7-14.6c-0.7-2.3-3-3.7-6.1-3.7c-1.9,0-3.9,0.5-5.9,1.4
		c-3,1.4-5.7,2.9-8.1,4.6c0-0.3-0.1-0.5-0.1-0.7c-0.9-3.6-6.6-5.1-11.7-5.3L141.7,44.4L141.7,44.4z"/>
</g>
<g>
	<path class="st0" d="M182.4,94.5c-5.4,0-10.2-2.4-12.2-6.2c-1.8-3.3-0.6-6.8,0.6-7.6l0.7-0.4l0.6,0.5c3.7,3.5,6.4,4,8.8,4
		c4.4,0,6.8-3.8,8.6-7.8c-2.7,2.2-5.4,3.3-8.1,3.3c-2.8,0-5.1-0.8-6.6-2.4c-1.5-1.5-2.2-3.5-2.2-5.9c0-3.1,1.7-6.6,3.4-10.2
		c2.2-4.6,4.5-9.5,3-13.1l-0.4-0.9l0.9-0.4c2.2-0.9,4.3-1.4,6.2-1.4c2.2,0,4,0.7,5.2,1.9c1.2,1.2,1.7,2.8,1.7,4.8
		c0,3.9-2.3,8.3-4.2,11.9c-0.8,1.6-1.8,3.4-2,4.3c4.5-0.3,9.4-7.5,11.7-14.5c0.8-2.7,1.1-5,1.1-6.7l0-1.1l1.1,0
		c4.9,0.2,10.1,1.7,10.7,4.6c0.4,1.7,0.1,5.8-6.4,20.9C199.1,84.8,194,94.5,182.4,94.5z"/>
	<path class="st1" d="M185.7,47c3.5,0,6,1.8,6,5.6c-0.1,7.1-8.8,17.2-5.4,17.2c5.2,0,10.5-7.9,12.9-15.2c0.8-2.6,1.2-5.1,1.1-7.1
		c5.1,0.2,9.3,1.8,9.8,3.8c0.6,2.8-2.2,10.8-6.3,20.3c-5.2,11.9-10.1,21.9-21.3,21.9c-5,0-9.5-2.3-11.3-5.7
		c-1.5-2.8-0.4-5.8,0.3-6.3c3.7,3.5,6.6,4.3,9.4,4.3c6.8,0,9.3-7.9,11.4-12.9c-3.4,3.9-7.1,6.4-10.8,6.4c-4.7,0-7.9-2.7-7.8-7.3
		c0.1-6.9,9.1-16.7,6.3-23.7C182,47.4,184,47,185.7,47 M185.7,45c-2,0-4.3,0.5-6.6,1.4l-1.8,0.8L178,49c1.3,3.3-0.9,7.9-3,12.3
		c-1.8,3.7-3.4,7.3-3.5,10.6c0,2.6,0.8,4.9,2.5,6.6c1.8,1.8,4.3,2.7,7.4,2.7c1.8,0,3.6-0.4,5.4-1.3c-1.5,2.4-3.3,3.9-5.9,3.9
		c-2.1,0-4.6-0.5-8.1-3.7l-1.2-1.1l-1.3,0.9c-1.7,1.1-2.9,5.2-1,8.9c2.2,4.1,7.3,6.7,13.1,6.7c13.2,0,18.7-12.8,23.2-23.1
		c6.5-15.2,6.9-19.5,6.4-21.5c-0.8-3.7-6.8-5.2-11.6-5.3l-2.1-0.1l0.1,2.1c0.1,1.6-0.3,3.8-1,6.4c-2.1,6.3-5.8,11.6-9.1,13.3
		c0.4-0.8,0.8-1.6,1.2-2.3c1.9-3.7,4.3-8.2,4.3-12.3c0-2.2-0.7-4.1-2-5.5C190.2,45.7,188.2,45,185.7,45L185.7,45z"/>
</g>
<g>
	<linearGradient id="SVGID_1_" gradientUnits="userSpaceOnUse" x1="217.9758" y1="45.787" x2="313.3091" y2="86.1203">
		<stop  offset="0" style="stop-color:#FECF0A"/>
		<stop  offset="0.9295" style="stop-color:#F69721;stop-opacity:0.9535"/>
		<stop  offset="1" style="stop-color:#F69321;stop-opacity:0.95"/>
	</linearGradient>
	<path class="st2" d="M246.2,80.2c-3,0-5.8-0.9-7.4-2.3c-1.4-1.2-2.2-3-2.4-5.3c-0.1-1.5,0-3.6,0.2-5.9c-3,5.1-6.1,9.1-8.6,11.1
		c-1.9,1.5-4.2,2.4-6.6,2.4c-2.2,0-4.4-0.8-6.2-2.2c-1.4-1-2.2-2.8-2.4-5.4c-0.3-3.3,0.4-9.1,1.3-15.8c1.1-8.3,2.2-17.6,1.4-22.9
		l-0.2-1.1l1.1,0c0.2,0,0.4,0,0.6,0c4.7,0,10.4,1.5,11.5,4.4c1.2,3.3,0,9.4-1.5,16.5c-1,4.8-2,9.7-2.3,14.1
		c7.8-9.8,11.9-22.7,15.1-34.2l0.2-0.7l1,0c4.7,0,10.1,1.5,11.1,4.4c1.2,3.2-0.1,9.3-1.5,16.4c-1,4.6-1.9,9.4-2.3,13.7
		c8.1-10,12.3-22.3,15.5-34.1l0.2-0.7l0.9,0c2.4,0,7.1,2.3,9.3,5.2c1.1,1.5,1.5,3.1,1.1,4.5c-5.1,15.4-15.6,31.8-21.2,35.7
		C251.3,79.8,248.3,80.2,246.2,80.2z"/>
	<path class="st1" d="M264.9,33.5c2.9,0,10.6,4.2,9.4,8.4c-5,15-15.2,31.3-20.8,35.1c-2.2,1.6-4.9,2.2-7.3,2.2
		c-2.8,0-5.4-0.9-6.7-2.1c-1.1-0.9-1.9-2.4-2.1-4.7c-0.2-2.4,0.3-6.4,0.9-10.9c-3.7,7.2-7.7,12.9-10.9,15.4c-1.7,1.3-3.8,2.2-6,2.2
		c-1.9,0-3.8-0.6-5.6-2c-1.2-0.9-1.9-2.4-2.1-4.7c-0.7-7.4,4.2-29.2,2.6-38.8c0.2,0,0.4,0,0.5,0c4.7,0,9.7,1.6,10.6,3.8
		c2.1,5.5-4,21.7-4,33.1c9.4-10.4,13.9-25.1,17.2-36.8c0.1,0,0.2,0,0.3,0c4.7,0,9.4,1.6,10.2,3.8c2,5.4-3.8,21.3-4,32.7
		c9.9-11,14.4-24.8,17.6-36.7C264.8,33.5,264.8,33.5,264.9,33.5 M264.9,31.5c-0.1,0-0.1,0-0.2,0l-1.5,0.1l-0.4,1.4
		c-2.9,10.6-6.5,21.5-13.1,30.8c0.5-3.2,1.2-6.6,1.9-10c1.5-7.2,2.8-13.5,1.5-17c-1.3-3.5-7.1-5.1-12-5.1l-0.3,0l-1.5,0l-0.4,1.4
		c-2.9,10.3-6.4,21.7-12.7,30.9c0.5-3.3,1.2-6.8,1.9-10.3c1.5-7.3,2.8-13.5,1.5-17c-1.4-3.7-8.2-5.1-12.4-5.1c-0.2,0-0.4,0-0.6,0
		l-2.3,0.1l0.4,2.3c0.8,5.1-0.3,14.4-1.4,22.6c-0.9,6.8-1.6,12.6-1.3,16c0.2,2.8,1.2,4.8,2.8,6.1c2,1.6,4.3,2.4,6.8,2.4
		c2.6,0,5.1-0.9,7.2-2.6c2-1.6,4.4-4.4,6.7-8c0,0.7,0,1.4,0,2c0.2,2.6,1.1,4.6,2.7,6c1.8,1.6,4.8,2.6,8.1,2.6c2.2,0,5.4-0.4,8.4-2.6
		c5.8-4,16.3-20.4,21.5-36.1l0,0l0,0c0.3-1.2,0.4-3.2-1.3-5.4C272.6,33.9,267.6,31.5,264.9,31.5L264.9,31.5z"/>
</g>
<g>
	<linearGradient id="SVGID_2_" gradientUnits="userSpaceOnUse" x1="223.9852" y1="40.3867" x2="314.7498" y2="78.7872">
		<stop  offset="0" style="stop-color:#FECF0A"/>
		<stop  offset="0.9295" style="stop-color:#F69721;stop-opacity:0.9535"/>
		<stop  offset="1" style="stop-color:#F69321;stop-opacity:0.95"/>
	</linearGradient>
	<path class="st3" d="M274.7,80.4c-2.2,0-4.1-0.7-5.3-1.9c-1.1-1.2-1.7-2.7-1.7-4.7c0-3.4,2.1-8.2,4.3-13.4
		c2.2-5.2,4.5-10.5,4.4-13.9l0-1.1l1.1,0c4.5,0.2,10,1.5,10.8,4.5c0.7,3.1-1.3,7.8-3.4,12.7c-2.3,5.4-4.9,11.5-3.5,15l0.4,0.9
		l-0.9,0.4C278.7,79.9,276.6,80.4,274.7,80.4z"/>
	<path class="st1" d="M277.5,46.4c5.2,0.2,9.3,1.7,9.8,3.8c1.4,6.2-9.6,20.8-6.8,27.9c-2.1,0.8-4.1,1.3-5.8,1.3c-3.5,0-6-1.8-6-5.6
		C268.8,67.2,277.6,53.4,277.5,46.4 M277.5,44.4l-2.1-0.1l0,2.1c0.1,3.2-2.2,8.4-4.4,13.5c-2.2,5.2-4.4,10.2-4.4,13.8
		c0,2.2,0.7,4.1,2,5.4c1.4,1.4,3.5,2.2,6,2.2c2,0,4.2-0.5,6.5-1.4l1.9-0.7l-0.7-1.9c-1.2-3.1,1.3-9.1,3.5-14.3
		c2.2-5.3,4.2-9.9,3.4-13.3c-0.4-1.6-1.8-2.9-3.6-3.7S278.6,44.5,277.5,44.4z"/>
</g>
<g>
	<linearGradient id="SVGID_3_" gradientUnits="userSpaceOnUse" x1="225.2236" y1="28.6557" x2="320.5569" y2="68.989">
		<stop  offset="0" style="stop-color:#FECF0A"/>
		<stop  offset="0.9295" style="stop-color:#F69721;stop-opacity:0.9535"/>
		<stop  offset="1" style="stop-color:#F69321;stop-opacity:0.95"/>
	</linearGradient>
	<path class="st4" d="M311.5,80.4c-2.2,0-4-0.7-5.2-1.9c-1.2-1.2-1.7-2.8-1.7-4.8c0-3.4,1.5-6.7,3.2-10.4c1-2.1,1.9-4.3,2.8-6.8
		c-2.3,1.1-7.8,5.7-10.6,11.7c-1.7,3.7-2.1,7.3-1.2,9.5l0.4,0.9l-0.9,0.4c-2.2,0.9-4.3,1.3-6.2,1.3c-2.2,0-4.1-0.7-5.3-1.9
		c-1.1-1.2-1.7-2.7-1.7-4.7c0-3.4,2.1-8.2,4.3-13.4c2.2-5.2,4.5-10.5,4.4-13.9l0-1.1l1.1,0c4.5,0.2,10,1.5,10.8,4.5
		c0.2,0.7,0.2,1.5,0.1,2.5c2.8-2.2,5.9-4,9.5-5.7c1.8-0.9,3.7-1.3,5.5-1.3c2.6,0,4.6,1.1,5.2,3c1,3.2-1.3,8.4-3.7,13.9
		c-2.5,5.6-5.3,12-3.9,15.4l0.4,0.9l-0.9,0.4C315.5,79.9,313.4,80.4,311.5,80.4z"/>
	<path class="st1" d="M294.8,46.4c5.2,0.2,9.3,1.7,9.8,3.8c0.3,1.3,0,3-0.6,4.9c4-3.5,8.1-5.8,11.6-7.4c1.8-0.8,3.5-1.2,5-1.2
		c2.1,0,3.7,0.8,4.2,2.3c2,6-10.4,22.3-7.6,29.3c-2.1,0.9-4.1,1.3-5.8,1.3c-3.5,0-6-1.8-6-5.6c0.1-5.2,3.8-10.3,6.2-17.6
		c0.2-0.6,0-0.9-0.4-0.9c-1.9,0-9,5.5-12.3,12.5c-1.7,3.8-2.3,7.7-1.3,10.3c-2.1,0.8-4.1,1.3-5.8,1.3c-3.5,0-6-1.8-6-5.6
		C286.1,67.2,294.9,53.4,294.8,46.4 M292.7,44.4l0,2.1c0.1,3.2-2.2,8.4-4.4,13.5c-2.2,5.2-4.4,10.2-4.4,13.8c0,2.2,0.7,4.1,2,5.4
		c1.4,1.4,3.5,2.2,6,2.2c2,0,4.2-0.5,6.5-1.4l1.9-0.7l-0.8-1.9c-0.8-2-0.3-5.3,1.2-8.8c1.9-4,5.1-7.5,7.6-9.5
		c-0.5,1.3-1.1,2.6-1.7,3.8c-1.7,3.9-3.2,7.2-3.3,10.8c0,2.2,0.7,4.1,2,5.5c1.4,1.4,3.5,2.2,6,2.2c2,0,4.3-0.5,6.6-1.4l1.8-0.8
		l-0.7-1.8c-1.2-3,1.5-9.1,3.9-14.6c2.6-5.9,4.9-11.1,3.7-14.6c-0.7-2.3-3-3.7-6.1-3.7c-1.9,0-3.9,0.5-5.9,1.4
		c-3,1.4-5.7,2.9-8.1,4.6c0-0.3-0.1-0.5-0.1-0.7c-0.9-3.6-6.6-5.1-11.7-5.3L292.7,44.4L292.7,44.4z"/>
</g>
<path class="st5" d="M69.9,56c-1.3,0-2.7,1.3-3.9,3.3c2.2,0.4,4.6,0.7,7.1,1C73,58.9,72.5,56,69.9,56z"/>
<path class="st5" d="M39,47.5c1-3-0.4-5.1-3-4.9c-1.8,0.1-4.1,1.4-5.5,3.4c-0.7,2.7-1.7,5.4-2.4,7.4c0.5,0,0.9,0.1,1.4,0.1
	C33.3,53.1,37.7,51.3,39,47.5z"/>
<path class="st5" d="M303.9,60.7c2,0.4,3.9,0.8,5.6,1.2c0.8-1.8,1.6-3.7,2.3-5.8C312.5,53.9,308,56.2,303.9,60.7z"/>
<path class="st5" d="M101.4,53c-4.6,0.1-8.5,5.1-9.9,9.3c3.2,0.3,6.6,0.5,10.3,0.7c1.1-1.7,2.2-3.5,3.2-5.4
	C106.4,54.7,105,53,101.4,53z"/>
<path class="st5" d="M151.1,62.8c2.4-0.1,4.8-0.3,7.2-0.5c0.8-1.9,1.7-3.9,2.4-6.2C161.5,53.6,155.5,57,151.1,62.8z"/>
<path class="st0" d="M73.1,61.1c0,0.3,0.9,0.1,2.2-0.5c-0.7-0.1-1.5-0.2-2.2-0.3C73.1,60.8,73.1,61.1,73.1,61.1z"/>
<g class="st6">
	<linearGradient id="SVGID_4_" gradientUnits="userSpaceOnUse" x1="28.4763" y1="71.75" x2="28.4763" y2="56">
		<stop  offset="0" style="stop-color:#F2F2F2"/>
		<stop  offset="0.4513" style="stop-color:#B5B6B9"/>
		<stop  offset="1" style="stop-color:#6D6E71"/>
	</linearGradient>
	<path class="st7" d="M14.5,79.5c12.4,1.4,29.3,0.9,33-10.6c1.6-4.9-2-9.9-9.1-12.2c1.3-0.4,2.6-1,3.9-1.6
		c-4.2-0.7-8.4-1.3-12.9-1.6c-0.5,0-1,0.1-1.4,0.1c0-0.1,0-0.1,0.1-0.2c-3.5-0.2-7.2-0.3-11.2-0.3c0,0,0,0,0,0
		C12.8,63.2,9.2,70.5,9.1,74C9.1,77.6,11.3,79.2,14.5,79.5z M25.7,59c5.4,0.4,13,3,10.5,8.9c-2,4.5-10.6,4.8-15,3.5
		C22.2,67.6,24,63.2,25.7,59z"/>
	<linearGradient id="SVGID_5_" gradientUnits="userSpaceOnUse" x1="57.6769" y1="71.75" x2="57.6769" y2="56">
		<stop  offset="0" style="stop-color:#F2F2F2"/>
		<stop  offset="0.4513" style="stop-color:#B5B6B9"/>
		<stop  offset="1" style="stop-color:#6D6E71"/>
	</linearGradient>
	<path class="st8" d="M61.1,78.1C60,75.3,62.6,64.7,66,59.3c-4-0.6-7.6-1.3-11-1.9c-2.5,6.1-5.6,12.5-5.7,16.4
		C49.3,79.5,54.8,80.7,61.1,78.1z"/>
	<linearGradient id="SVGID_6_" gradientUnits="userSpaceOnUse" x1="97.0659" y1="71.75" x2="97.0659" y2="56">
		<stop  offset="0" style="stop-color:#F2F2F2"/>
		<stop  offset="0.4513" style="stop-color:#B5B6B9"/>
		<stop  offset="1" style="stop-color:#6D6E71"/>
	</linearGradient>
	<path class="st9" d="M88.8,79.3c4.2-0.1,8.2-3.7,11.8-8.4c-0.3,1.1-0.4,2.1-0.4,3c-0.1,5.7,5.5,6.9,11.8,4.3
		c-1.4-3.6,0.7-9.2,3-14.6c-4.6-0.1-9-0.3-13.1-0.5c-2.9,4.3-6,7.6-8.2,7.6c-2.8,0-3.3-4-2.3-7.8c0-0.2,0.1-0.3,0.2-0.5
		c-4-0.3-7.6-0.7-10.7-1c-0.3,0.8-0.6,1.6-0.8,2.4C77.6,72.5,81,79.6,88.8,79.3z"/>
	<linearGradient id="SVGID_7_" gradientUnits="userSpaceOnUse" x1="125.039" y1="71.75" x2="125.039" y2="56">
		<stop  offset="0" style="stop-color:#F2F2F2"/>
		<stop  offset="0.4513" style="stop-color:#B5B6B9"/>
		<stop  offset="1" style="stop-color:#6D6E71"/>
	</linearGradient>
	<path class="st10" d="M129.4,78.1c-1.4-3.6,0.7-9.2,3-14.5c-4,0.1-7.9,0.1-11.7,0c-1.6,3.9-3,7.6-3,10.2
		C117.6,79.5,123.1,80.7,129.4,78.1z"/>
	<linearGradient id="SVGID_8_" gradientUnits="userSpaceOnUse" x1="143.0216" y1="71.75" x2="143.0216" y2="56">
		<stop  offset="0" style="stop-color:#F2F2F2"/>
		<stop  offset="0.4513" style="stop-color:#B5B6B9"/>
		<stop  offset="1" style="stop-color:#6D6E71"/>
	</linearGradient>
	<path class="st11" d="M146.8,78.1c-1.1-2.6-0.4-6.5,1.3-10.3c0.8-1.8,1.9-3.4,3-5c-4.4,0.3-8.8,0.5-13,0.6c-1.7,4-3.1,7.7-3.1,10.3
		C134.9,79.5,140.5,80.7,146.8,78.1z"/>
	<linearGradient id="SVGID_9_" gradientUnits="userSpaceOnUse" x1="162.5502" y1="71.75" x2="162.5502" y2="56">
		<stop  offset="0" style="stop-color:#F2F2F2"/>
		<stop  offset="0.4513" style="stop-color:#B5B6B9"/>
		<stop  offset="1" style="stop-color:#6D6E71"/>
	</linearGradient>
	<path class="st12" d="M158.2,62.3c-1.9,4.3-3.7,7.9-3.7,11.5c-0.1,5.7,5.5,6.9,11.8,4.3c-1.6-3.9,1.6-10.8,4.3-17
		c-2.2,0.3-4.8,0.6-7.7,0.8C161.4,62.1,159.8,62.2,158.2,62.3z"/>
	<linearGradient id="SVGID_10_" gradientUnits="userSpaceOnUse" x1="190.0705" y1="71.75" x2="190.0705" y2="56">
		<stop  offset="0" style="stop-color:#F2F2F2"/>
		<stop  offset="0.4513" style="stop-color:#B5B6B9"/>
		<stop  offset="1" style="stop-color:#6D6E71"/>
	</linearGradient>
	<path class="st13" d="M181.4,79.3c3.7,0,7.4-2.5,10.8-6.4c-2.1,5-4.6,12.9-11.4,12.9c-2.8,0-5.7-0.8-9.4-4.3
		c-0.8,0.5-1.8,3.5-0.3,6.3c1.8,3.4,6.3,5.7,11.3,5.7c11.2,0,16.2-10,21.3-21.9c3-7,5.3-13.1,6.1-17c-1,0.1-1.9,0.2-2.9,0.3
		c-3.2,0.3-5.9,0.7-8.2,1c-2.6,6.9-7.5,13.9-12.5,13.9c-2.7,0,2.2-6.3,4.4-12.4c-4.1,0.9-7.5,1.8-12.8,2.7c-1.9,4.2-4.3,8.5-4.3,12
		C173.5,76.6,176.7,79.3,181.4,79.3z"/>
</g>
<g class="st14">
	<linearGradient id="SVGID_11_" gradientUnits="userSpaceOnUse" x1="240.7945" y1="64.8677" x2="242.4612" y2="51.8677">
		<stop  offset="0" style="stop-color:#FCC40F"/>
		<stop  offset="0.9147" style="stop-color:#F68D1E"/>
		<stop  offset="1" style="stop-color:#F6881F"/>
	</linearGradient>
	<path class="st15" d="M213.8,72.5c0.2,2.3,0.9,3.8,2.1,4.7c3.7,3,8.4,2.4,11.5-0.1c3.1-2.5,7.2-8.2,10.9-15.4
		c-0.6,4.5-1.1,8.5-0.9,10.9c0.2,2.3,1,3.7,2.1,4.7c2.5,2.3,9.2,3.3,14-0.1c3.9-2.7,10.1-11.6,15.2-21.8c-3.6-0.4-7.4-0.7-11.3-1
		c-2.6,5.6-6,11.1-10.4,15.9c0.1-5,1.3-10.9,2.4-16.4c-5-0.2-10.2-0.3-15.5-0.3c-2.7,6.2-6,12.1-10.6,17.1c0-5.1,1.3-11.3,2.5-16.9
		c-3.5,0.1-7,0.3-10.5,0.6C214.5,61.7,213.5,68.9,213.8,72.5z"/>
	<linearGradient id="SVGID_12_" gradientUnits="userSpaceOnUse" x1="276.8142" y1="69.4856" x2="278.4809" y2="56.4856">
		<stop  offset="0" style="stop-color:#FCC40F"/>
		<stop  offset="0.9147" style="stop-color:#F68D1E"/>
		<stop  offset="1" style="stop-color:#F6881F"/>
	</linearGradient>
	<path class="st16" d="M280.5,78.1c-2-5,2.9-13.8,5.5-20.6c-3.5-0.5-7.1-1.1-11-1.5c-2.6,6.5-6.2,13.6-6.2,17.8
		C268.7,79.5,274.2,80.7,280.5,78.1z"/>
	<linearGradient id="SVGID_13_" gradientUnits="userSpaceOnUse" x1="312.1932" y1="74.0214" x2="313.8599" y2="61.0214">
		<stop  offset="0" style="stop-color:#FCC40F"/>
		<stop  offset="0.9147" style="stop-color:#F68D1E"/>
		<stop  offset="1" style="stop-color:#F6881F"/>
	</linearGradient>
	<path class="st17" d="M309.5,62c-2,4.5-3.9,8.2-3.9,11.8c-0.1,5.7,5.5,6.9,11.8,4.3c-1.3-3.2,0.6-8.4,2.8-13.6
		c-0.7-0.2-1.4-0.3-1.9-0.5C316.1,63.5,313.2,62.8,309.5,62z"/>
	<linearGradient id="SVGID_14_" gradientUnits="userSpaceOnUse" x1="294.3491" y1="71.7337" x2="296.0157" y2="58.7337">
		<stop  offset="0" style="stop-color:#FCC40F"/>
		<stop  offset="0.9147" style="stop-color:#F68D1E"/>
		<stop  offset="1" style="stop-color:#F6881F"/>
	</linearGradient>
	<path class="st18" d="M297.8,78.1c-1.1-2.6-0.4-6.5,1.3-10.3c1.2-2.6,3-5.1,4.8-7.1c-3.7-0.8-7.9-1.6-12.6-2.4
		c-2.4,5.8-5.2,11.7-5.3,15.4C286,79.5,291.5,80.7,297.8,78.1z"/>
</g>
<g>
	<g>
		<g>
			<g>
				<defs>
					<path id="SVGID_15_" d="M296.6,29.9c-2.5,4.7-7.2,6.7-11.5,5.1c-4.4-1.7-5.6-6-3-10.6c2.5-4.7,7.2-6.7,11.6-5
						C298.1,21,299.2,25.3,296.6,29.9z"/>
				</defs>
				<clipPath id="SVGID_16_">
					<use xlink:href="#SVGID_15_"  style="overflow:visible;"/>
				</clipPath>
				
					<rect x="279.4" y="17.8" transform="matrix(-0.9873 0.1589 -0.1589 -0.9873 579.4201 7.9234)" class="st19" width="19.9" height="18.7"/>
				<circle class="st19" cx="289.4" cy="27.1" r="8.5"/>
				<circle class="st20" cx="289.4" cy="27.1" r="8.4"/>
				<circle class="st21" cx="289.4" cy="27.1" r="8.3"/>
				<circle class="st22" cx="289.4" cy="27.1" r="8.2"/>
				<circle class="st23" cx="289.4" cy="27.1" r="8"/>
				<circle class="st24" cx="289.4" cy="27.1" r="7.9"/>
				<circle class="st25" cx="289.4" cy="27.1" r="7.8"/>
				<circle class="st26" cx="289.4" cy="27.1" r="7.6"/>
				<circle class="st27" cx="289.4" cy="27.1" r="7.5"/>
				<circle class="st28" cx="289.4" cy="27.1" r="7.4"/>
				<circle class="st28" cx="289.4" cy="27.1" r="7.2"/>
				<circle class="st29" cx="289.4" cy="27.1" r="7.1"/>
				<circle class="st30" cx="289.4" cy="27.1" r="7"/>
				<circle class="st31" cx="289.4" cy="27.1" r="6.9"/>
				<circle class="st32" cx="289.4" cy="27.1" r="6.7"/>
				<circle class="st33" cx="289.4" cy="27.1" r="6.6"/>
				<circle class="st34" cx="289.4" cy="27.1" r="6.5"/>
				<circle class="st35" cx="289.4" cy="27.1" r="6.3"/>
				<circle class="st36" cx="289.4" cy="27.1" r="6.2"/>
				<circle class="st37" cx="289.4" cy="27.1" r="6.1"/>
				<circle class="st38" cx="289.4" cy="27.1" r="6"/>
				<circle class="st39" cx="289.4" cy="27.1" r="5.8"/>
				<circle class="st40" cx="289.4" cy="27.1" r="5.7"/>
				<circle class="st41" cx="289.4" cy="27.1" r="5.6"/>
				<circle class="st42" cx="289.4" cy="27.1" r="5.4"/>
				<circle class="st43" cx="289.4" cy="27.1" r="5.3"/>
				<circle class="st44" cx="289.4" cy="27.1" r="5.2"/>
				<circle class="st45" cx="289.4" cy="27.1" r="5"/>
				<circle class="st46" cx="289.4" cy="27.1" r="4.9"/>
				<circle class="st47" cx="289.4" cy="27.1" r="4.8"/>
				<circle class="st48" cx="289.4" cy="27.1" r="4.7"/>
				<circle class="st49" cx="289.4" cy="27.1" r="4.5"/>
				<circle class="st50" cx="289.4" cy="27.1" r="4.4"/>
				<circle class="st51" cx="289.4" cy="27.1" r="4.3"/>
				<circle class="st52" cx="289.4" cy="27.1" r="4.1"/>
				<circle class="st53" cx="289.4" cy="27.1" r="4"/>
				<circle class="st54" cx="289.4" cy="27.1" r="3.9"/>
				<circle class="st55" cx="289.4" cy="27.1" r="3.8"/>
				<circle class="st56" cx="289.4" cy="27.1" r="3.6"/>
				<circle class="st57" cx="289.4" cy="27.1" r="3.5"/>
				<circle class="st58" cx="289.4" cy="27.1" r="3.4"/>
				<circle class="st58" cx="289.4" cy="27.1" r="3.2"/>
				<circle class="st58" cx="289.4" cy="27.1" r="3.1"/>
				<circle class="st59" cx="289.4" cy="27.1" r="3"/>
				<circle class="st60" cx="289.4" cy="27.1" r="2.8"/>
				<circle class="st61" cx="289.4" cy="27.1" r="2.7"/>
				<circle class="st62" cx="289.4" cy="27.1" r="2.6"/>
				<circle class="st62" cx="289.4" cy="27.1" r="2.5"/>
				<circle class="st63" cx="289.4" cy="27.1" r="2.3"/>
				<circle class="st64" cx="289.4" cy="27.1" r="2.2"/>
				<circle class="st64" cx="289.4" cy="27.1" r="2.1"/>
				<circle class="st65" cx="289.4" cy="27.1" r="1.9"/>
				<circle class="st65" cx="289.4" cy="27.1" r="1.8"/>
				<circle class="st66" cx="289.4" cy="27.1" r="1.7"/>
				<circle class="st67" cx="289.4" cy="27.1" r="1.6"/>
				<circle class="st67" cx="289.4" cy="27.1" r="1.4"/>
				<circle class="st68" cx="289.4" cy="27.1" r="1.3"/>
				<circle class="st68" cx="289.4" cy="27.1" r="1.2"/>
				<circle class="st68" cx="289.4" cy="27.1" r="1"/>
				<circle class="st69" cx="289.4" cy="27.1" r="0.9"/>
				<circle class="st69" cx="289.4" cy="27.1" r="0.8"/>
				<circle class="st69" cx="289.4" cy="27.1" r="0.6"/>
				<circle class="st70" cx="289.4" cy="27.1" r="0.5"/>
				<circle class="st70" cx="289.4" cy="27.1" r="0.4"/>
				<circle class="st70" cx="289.4" cy="27.1" r="0.3"/>
				<circle class="st70" cx="289.4" cy="27.1" r="0.1"/>
				<use xlink:href="#SVGID_15_"  style="overflow:visible;fill:none;stroke:#231F20;stroke-width:4;stroke-miterlimit:10;"/>
			</g>
		</g>
	</g>
</g>
<g>
	<path class="st0" d="M282.9,35.3c0,0,2.1,1.7,5.6,1.6"/>
	<path class="st71" d="M288.6,37.4C288.6,37.4,288.5,37.4,288.6,37.4c-3.7,0.1-5.9-1.7-6-1.7c-0.2-0.2-0.2-0.5-0.1-0.7
		c0.2-0.2,0.5-0.2,0.7-0.1c0,0,2,1.6,5.2,1.5c0.3,0,0.5,0.2,0.5,0.5C289,37.2,288.8,37.4,288.6,37.4z"/>
</g>
<g>
	<path class="st0" d="M282.7,37.2c1.8,1.3,5,1.3,5,1.3"/>
	<path class="st71" d="M287.7,39C287.7,39,287.6,39,287.7,39c-0.2,0-3.5,0-5.3-1.4c-0.2-0.2-0.3-0.5-0.1-0.7
		c0.2-0.2,0.5-0.3,0.7-0.1c1.6,1.2,4.6,1.2,4.7,1.2c0.3,0,0.5,0.2,0.5,0.5C288.1,38.8,287.9,39,287.7,39z"/>
</g>
<path class="st71" d="M285.2,39.4c-0.3,0-0.8-0.1-1-0.2c-0.2-0.2-0.5-0.1-0.7,0.1c-0.2,0.2-0.1,0.5,0.1,0.7c0.6,0.4,1.5,0.4,1.6,0.4
	c0,0,0.1,0,0.1,0c0.2,0,0.4-0.2,0.4-0.5C285.7,39.6,285.5,39.4,285.2,39.4z"/>
<g>
	
		<radialGradient id="SVGID_17_" cx="289.4147" cy="27.1479" r="30.3333" gradientTransform="matrix(1 0 0 0.8467 0 4.2483)" gradientUnits="userSpaceOnUse">
		<stop  offset="0" style="stop-color:#FCB117;stop-opacity:0.95"/>
		<stop  offset="2.171804e-002" style="stop-color:#FBAE18;stop-opacity:0.95"/>
		<stop  offset="0.135" style="stop-color:#F9A01B;stop-opacity:0.95"/>
		<stop  offset="0.2143" style="stop-color:#F99B1C;stop-opacity:0.95"/>
		<stop  offset="0.3569" style="stop-color:#FAA82C;stop-opacity:0.7776"/>
		<stop  offset="0.591" style="stop-color:#FDB843;stop-opacity:0.4946"/>
		<stop  offset="0.8108" style="stop-color:#FEC352;stop-opacity:0.2288"/>
		<stop  offset="1" style="stop-color:#FFC657;stop-opacity:0"/>
	</radialGradient>
	<ellipse class="st72" cx="289.4" cy="27.2" rx="30.3" ry="25.7"/>
</g>
<g>
	<g>
		<g>
			
				<radialGradient id="SVGID_18_" cx="433.5142" cy="-17.1668" r="8.5399" gradientTransform="matrix(0.9873 -0.1589 0.1589 0.9873 -135.8568 113.0808)" gradientUnits="userSpaceOnUse">
				<stop  offset="0" style="stop-color:#FAF5AD"/>
				<stop  offset="0.1972" style="stop-color:#FAF4A9;stop-opacity:0.9901"/>
				<stop  offset="0.4437" style="stop-color:#FBF39C;stop-opacity:0.9778"/>
				<stop  offset="0.7165" style="stop-color:#FBF088;stop-opacity:0.9642"/>
				<stop  offset="1" style="stop-color:#FCED69;stop-opacity:0.95"/>
			</radialGradient>
			<path class="st73" d="M296.7,30c-2.5,4.7-7.2,6.7-11.5,5.1c-4.4-1.7-5.6-6-3-10.6c2.5-4.7,7.2-6.7,11.6-5
				C298.1,21.1,299.2,25.3,296.7,30z"/>
		</g>
	</g>
	<path class="st74" d="M282.9,35.3c0,0,2.1,1.7,5.6,1.6"/>
	<path class="st74" d="M282.7,37.2c1.8,1.3,5,1.3,5,1.3"/>
	<path class="st74" d="M283.9,39.6c0.5,0.4,1.3,0.3,1.3,0.3"/>
	<path class="st75" d="M285.9,27.7c0.1-0.2,0.3-0.3,0.5-0.5c1.3-1.2,3-1.3,3.9-1.3c0.3,0.1,2.2,0.7,2.5,2.1c0,0.1,0,0.3,0,0.4"/>
</g>
<path class="st1" d="M282,31.1"/>
</svg>
